<?xml version="1.0" encoding="utf-8"?>
<!-- Generator: Adobe Illustrator 22.1.0, SVG Export Plug-In . SVG Version: 6.00 Build 0)  -->
<svg version="1.1" id="Layer_1" xmlns="http://www.w3.org/2000/svg" xmlns:xlink="http://www.w3.org/1999/xlink" x="0px" y="0px"
	 viewBox="0 0 1366 768" style="enable-background:new 0 0 1366 768;" xml:space="preserve">
<style type="text/css">
	.st0{display:none;}
	.st1{fill:none;}
	.st2{enable-background:new    ;}
	.st3{fill:none;stroke:#000000;stroke-width:2;stroke-miterlimit:10;}
	.st4{display:none;fill:none;stroke:#000000;stroke-width:2;stroke-miterlimit:10;}
	.st5{font-family:'Helvetica';}
	.st6{font-size:14px;}
	.st7{font-size:6px;}
	.st8{fill:#FFFFFF;stroke:#000000;stroke-width:2;stroke-miterlimit:10;}
	.st9{fill:none;stroke:#000000;stroke-miterlimit:10;}
	.st10{display:inline;fill:none;stroke:#000000;stroke-miterlimit:10;}
</style>
<g id="Layer_1_1_" class="st0">
	
		<image style="display:inline;overflow:visible;opacity:0.38;enable-background:new    ;" width="2052" height="1154" xlink:href="74A4C4B2668F1AA3.jpeg"  transform="matrix(1.2632 0 0 1.2632 -885.0674 0.12)">
	</image>
</g>
<rect x="-475.6" y="-466.9" class="st1" width="430.6" height="466.9"/>
<text transform="matrix(1 0 0 1 -475.6289 -449.8232)" style="font-family:'ArialMT'; font-size:24px;">NOTES</text>
<text transform="matrix(1 0 0 1 -475.6289 -421.0232)" style="font-family:'ArialMT'; font-size:24px; letter-spacing:30;"> </text>
<text transform="matrix(1 0 0 1 -439.6289 -421.0232)" style="font-family:'ArialMT'; font-size:24px;">currency: coin that asks you to suggest </text>
<text transform="matrix(1 0 0 1 -475.6289 -392.2233)" style="font-family:'ArialMT'; font-size:24px;">a song and then gets in the machine and </text>
<text transform="matrix(1 0 0 1 -475.6289 -363.4232)" style="font-family:'ArialMT'; font-size:24px;">allows you to play.</text>
<text transform="matrix(1 0 0 1 -475.6289 -334.6232)" style="font-family:'ArialMT'; font-size:24px; letter-spacing:30;"> </text>
<text transform="matrix(1 0 0 1 -439.6289 -334.6232)" style="font-family:'ArialMT'; font-size:24px;">songs in the listing and yt video will </text>
<text transform="matrix(1 0 0 1 -475.6289 -305.8232)" style="font-family:'ArialMT'; font-size:24px;">appear after cd animation on the side and </text>
<text transform="matrix(1 0 0 1 -475.6289 -277.0232)" style="font-family:'ArialMT'; font-size:24px;">fade after it plays</text>
<text transform="matrix(1 0 0 1 -475.6289 -248.2232)" style="font-family:'ArialMT'; font-size:24px; letter-spacing:30;"> </text>
<text transform="matrix(1 0 0 1 -439.6289 -248.2232)" style="font-family:'ArialMT'; font-size:24px;">add sfx later on?</text>
<text transform="matrix(1 0 0 1 -475.6289 -219.4232)" style="font-family:'ArialMT'; font-size:24px; letter-spacing:30;"> </text>
<text transform="matrix(1 0 0 1 -439.6289 -219.4232)" style="font-family:'ArialMT'; font-size:24px;">name and artist of each song. If OST </text>
<text transform="matrix(1 0 0 1 -475.6289 -190.6232)" style="font-family:'ArialMT'; font-size:24px;">just (name) OST</text>
<text transform="matrix(1 0 0 1 -475.6289 -161.8232)" style="font-family:'ArialMT'; font-size:24px; letter-spacing:30;"> </text>
<text transform="matrix(1 0 0 1 -439.6289 -161.8232)" style="font-family:'ArialMT'; font-size:24px;">add that smol dialogue. theme: me </text>
<text transform="matrix(1 0 0 1 -475.6289 -133.0232)" style="font-family:'ArialMT'; font-size:24px;">being bad at hearing and how im too self </text>
<text transform="matrix(1 0 0 1 -475.6289 -104.2232)" style="font-family:'ArialMT'; font-size:24px;">aware and starting to be mindful abt these </text>
<text transform="matrix(1 0 0 1 -475.6289 -75.4232)" style="font-family:'ArialMT'; font-size:24px;">things bc that’s what cultured otaku do (im </text>
<text transform="matrix(1 0 0 1 -475.6289 -46.6232)" style="font-family:'ArialMT'; font-size:24px;">pathetic)/but honestly i just like their beat </text>
<text transform="matrix(1 0 0 1 -475.6289 -17.8232)" style="font-family:'ArialMT'; font-size:24px;">and lyrics</text>
<path class="st3" d="M41,768c0-128,2.1-214,2.1-303.6c0-13.4,1.1-22.4,1.9-33.4c35-528,724-473,741-1c0.4,10.1,0.8,20,0.8,30.4
	C786.8,555,783,649,783,768H41z"/>
<path class="st3" d="M87,768c0-119.6,1.8-200,1.8-283.7c0-12.5,1-20.9,1.6-31.2c30.1-493.4,623.4-442,638.1-0.9
	c0.3,9.5,0.7,18.7,0.7,28.4c0,88.4-3.3,176.2-3.3,287.4H87z"/>
<path class="st3" d="M140,768c0-109.9,1.5-183.7,1.5-260.7c0-11.5,2.1-19.2,1.3-28.7C106,32,718,67,670.4,477.8
	c-1,8.6,0.6,17.2,0.6,26.1c0,81.2-2.7,161.9-2.7,264.1H140z"/>
<path class="st3" d="M154,768c0-104.3,1.4-174.4,1.4-247.4c0-10.9,2.1-18.3,1.3-27.2C113,55,703,62,656.5,492.5
	c-0.9,8.2,0.5,16.3,0.5,24.8c0,77.1-2.6,153.7-2.6,250.7H154z"/>
<path class="st3" d="M640,414c0.6,6.6-5.4,12-12,12H182c-6.6,0-12.4-5.4-12-12C188,123,614,104,640,414z"/>
<rect x="862" y="54" class="st4" width="560" height="315"/>
<rect x="1294.8" y="431" class="st1" width="93.9" height="310.6"/>
<rect x="345.2" y="613.1" class="st1" width="126.8" height="15.9"/>
<text transform="matrix(1 0 0 1 345.1655 623.1343)" class="st5 st6">cce’s favorite songs</text>
<rect x="215.2" y="601.1" class="st1" width="13.8" height="6.9"/>
<text transform="matrix(1 0 0 1 215.1655 605.3823)" class="st5 st7">25¢</text>
<rect x="234.2" y="601.1" class="st1" width="13.8" height="6.9"/>
<text transform="matrix(1 0 0 1 234.1655 605.3823)" class="st5 st7">10¢</text>
<rect x="255.2" y="601.1" class="st1" width="13.8" height="6.9"/>
<text transform="matrix(1 0 0 1 255.1655 605.3823)" class="st5 st7">5¢</text>
<path class="st8" d="M164,429v24l-115,2c0,0-6,1-6,5c0,0-5-5-12-9s-7-11,0-13s10-7,10-7L164,429z"/>
<path class="st8" d="M164,475v24l-115,2c0,0-6,1-6,5c0,0-5-5-12-9s-7-11,0-13s10-7,10-7L164,475z"/>
<path class="st8" d="M164,521v24l-117.3,2c0,0-6.1,1-6.1,5c0,0-5.1-5-12.2-9s-7.1-11,0-13s10.2-7,10.2-7L164,521z"/>
<path class="st8" d="M646,429v24l133.8,2c0,0,7,1,7,5c0,0,5.8-5,14-9s8.1-11,0-13s-11.6-7-11.6-7L646,429z"/>
<path class="st8" d="M646,475v24l133.8,2c0,0,7,1,7,5c0,0,5.8-5,14-9s8.1-11,0-13s-11.6-7-11.6-7L646,475z"/>
<path class="st8" d="M646,521v24l133.9,2c0,0,7,1,7,5c0,0,5.8-5,14-9s8.2-11,0-13s-11.6-7-11.6-7L646,521z"/>
<path class="st3" d="M621,768v-67c0-6.6-5.4-12-12-12H201c-6.6,0-12,5.4-12,12v67H621z"/>
<path class="st3" d="M271,589h-67c-6.6,0-11,5-12,7v53c0,1,5.4,5,12,5h67V589z"/>
<path class="st3" d="M534,589h67c6.6,0,11,5,12,7v53c0,1-5.4,5-12,5h-67V589z"/>
<path class="st3" d="M534,689V585.5c0-10.2-10-18.5-14-18.5H284c-4,0-13,8.3-13,18.5V689H534z"/>
<path class="st3" d="M477,640H329c-6.6,0-12-5.4-12-12v-15c0-6.6,5.4-12,12-12h148c6.6,0,12,5.4,12,12v15
	C489,634.6,483.6,640,477,640z"/>
<path class="st3" d="M594,640h-30c-6.6,0-12-5.4-12-12v-15c0-6.6,5.4-12,12-12h30c6.6,0,12,5.4,12,12v15
	C606,634.6,600.6,640,594,640z"/>
<rect x="214" y="596" class="st9" width="13" height="17"/>
<rect x="233" y="596" class="st9" width="13" height="17"/>
<rect x="252" y="596" class="st9" width="13" height="17"/>
<rect x="217.5" y="617.5" class="st9" width="5" height="23"/>
<rect x="236.5" y="617.5" class="st9" width="5" height="18"/>
<rect x="255.5" y="617.5" class="st9" width="5" height="20"/>
<path class="st3" d="M220,429h-23.7c-2.3,0-3.9,8.9-4.3,12.5v94.6c0,1.8,1.9,8.9,4.3,8.9H220V429z"/>
<path class="st3" d="M299,429h-23.7c-2.3,0-3.9,8.9-4.3,12.5v94.6c0,1.8,1.9,8.9,4.3,8.9H299V429z"/>
<path class="st3" d="M506,429h23.7c2.3,0,3.9,8.9,4.3,12.5v94.6c0,1.8-1.9,8.9-4.3,8.9H506V429z"/>
<path class="st3" d="M585,429h23.7c2.3,0,3.9,8.9,4.3,12.5v94.6c0,1.8-1.9,8.9-4.3,8.9H585V429z"/>
<path class="st3" d="M534,768v-45.8c0-4.5-10-8.2-14-8.2H284c-4,0-13,3.7-13,8.2V768H534z"/>
<polygon class="st3" points="337.5,714.3 383.8,714.3 360.6,754.4 "/>
<polygon class="st3" points="418.5,714.3 464.8,714.3 441.6,754.4 "/>
<path class="st3" d="M283.8,714.4l24-0.1l-23.2,40.1l-12-20.7C267.7,725.2,273.9,714.4,283.8,714.4z"/>
<path class="st3" d="M520.9,714.5l-22-0.1c-0.7,0-1.1,0.7-0.7,1.3l22.4,38.8l11.7-20.2C537.3,725.5,531,714.5,520.9,714.5z"/>
<polygon class="st3" points="354,768 367,768 360.6,757.2 "/>
<polygon class="st3" points="278,768 291,768 284.6,757.2 "/>
<polygon class="st3" points="435,768 448,768 441.6,757.2 "/>
<polygon class="st3" points="514,768 527,768 520.6,757.2 "/>
<g id="Layer_4" class="st0">
	<circle class="st10" cx="598.5" cy="531.5" r="5"/>
	<circle class="st10" cx="598.5" cy="513.5" r="5"/>
	<circle class="st10" cx="598.5" cy="495.5" r="5"/>
	<circle class="st10" cx="598.5" cy="441.5" r="5"/>
	<circle class="st10" cx="598.5" cy="459.5" r="5"/>
	<circle class="st10" cx="598.5" cy="477.5" r="5"/>
	<circle class="st10" cx="206.5" cy="441.5" r="5"/>
	<circle class="st10" cx="206.5" cy="459.5" r="5"/>
	<circle class="st10" cx="206.5" cy="477.5" r="5"/>
	<circle class="st10" cx="206.5" cy="495.5" r="5"/>
	<circle class="st10" cx="206.5" cy="513.5" r="5"/>
	<circle class="st10" cx="206.5" cy="531.5" r="5"/>
	<circle class="st10" cx="285.5" cy="441.5" r="5"/>
	<circle class="st10" cx="285.5" cy="459.5" r="5"/>
	<circle class="st10" cx="285.5" cy="477.5" r="5"/>
	<circle class="st10" cx="285.5" cy="495.5" r="5"/>
	<circle class="st10" cx="285.5" cy="513.5" r="5"/>
	<circle class="st10" cx="285.5" cy="531.5" r="5"/>
	<circle class="st10" cx="519.5" cy="441.5" r="5"/>
	<circle class="st10" cx="519.5" cy="459.5" r="5"/>
	<circle class="st10" cx="519.5" cy="477.5" r="5"/>
	<circle class="st10" cx="519.5" cy="495.5" r="5"/>
	<circle class="st10" cx="519.5" cy="513.5" r="5"/>
	<circle class="st10" cx="519.5" cy="531.5" r="5"/>
	<circle class="st10" cx="201.5" cy="615.5" r="5"/>
</g>
<path class="st3" d="M377,429h-23.7c-2.3,0-3.9,8.9-4.3,12.5v94.6c0,1.8,1.9,8.9,4.3,8.9H377V429z"/>
<path class="st3" d="M427.5,429h23.7c2.3,0,3.9,8.9,4.3,12.5v94.6c0,1.8-1.9,8.9-4.3,8.9h-23.7V429z"/>
</svg>
